<mxfile host="app.diagrams.net" modified="2024-05-16T14:11:01.652Z" agent="Mozilla/5.0 (Windows NT 10.0; Win64; x64) AppleWebKit/537.36 (KHTML, like Gecko) Chrome/124.0.0.0 Safari/537.36" version="24.4.2" etag="Z95iSpvAVZt5P6Pe6HdD" type="github">
  <diagram name="PÃ¡gina-1" id="z-0REUnZL9QmkvWz6wbS">
    <mxGraphModel>
      <root>
        <mxCell id="0" />
        <mxCell id="1" parent="0" />
      </root>
    </mxGraphModel>
  </diagram>
</mxfile>
